<svg style="position: absolute; width: 0; height: 0; overflow: hidden;" aria-hidden="true" version="1.1" xmlns="http://www.w3.org/2000/svg" xmlns:xlink="http://www.w3.org/1999/xlink">
    <defs>
        <symbol id="Youtube" viewBox="0 0 24 24" fill="none">
            <title>Youtube</title>
            <path fill="currentColor" d="M21.5933 7.203c-0.1139-0.4226-0.3365-0.808-0.6456-1.1178-0.3091-0.3099-0.694-0.5333-1.1164-0.6482C18.2653 5.007 12.0003 5 12.0003 5c0 0-6.264-7e-3-7.831 0.404-0.4221 0.1201-0.8062 0.3468-1.1154 0.6581-0.3093 0.3114-0.5333 0.697-0.6506 1.1199-0.413 1.566-0.417 4.814-0.417 4.814 0 0-4e-3 3.264 0.406 4.814 0.23 0.857 0.905 1.534 1.763 1.765 1.582 0.43 7.83 0.437 7.83 0.437s6.265 7e-3 7.831-0.403c0.4225-0.1147 0.8078-0.3376 1.1177-0.6468s0.5337-0.694 0.6493-1.1162c0.414-1.565 0.417-4.812 0.417-4.812s0.02-3.265-0.407-4.831zM9.9963 15.005l5e-3-6 5.207 3.005z" />
        </symbol>
        <symbol id="x" viewBox="0 0 24 24" fill="none">
            <title>x</title>
            <path fill="currentColor" d="M16.192 6.3442l-4.243 4.242-4.242-4.242-1.414 1.414 4.242 4.242-4.242 4.242 1.414 1.414 4.242-4.242 4.243 4.242 1.414-1.414-4.242-4.242 4.242-4.242z" />
        </symbol>
        <symbol id="menu" viewBox="0 0 24 24" fill="none">
            <title>menu</title>
            <path fill="currentColor" d="M4 6h16v2H4zM4 11h16v2H4zM4 16h16v2H4z" />
        </symbol>
        <symbol id="LinkedIn" viewBox="0 0 24 24" fill="none">
            <title>LinkedIn</title>
            <path fill="currentColor" d="M19.3125 3H4.6875C3.7594 3 3 3.7594 3 4.6875v14.625C3 20.2406 3.7594 21 4.6875 21h14.625C20.2406 21 21 20.2406 21 19.3125V4.6875C21 3.7594 20.2406 3 19.3125 3zM9.75 17.625H7.5V9.75h2.25zM8.625 8.625C8.0029 8.625 7.5 8.1221 7.5 7.5c0-0.6221 0.5029-1.125 1.125-1.125S9.75 6.8779 9.75 7.5c0 0.6221-0.5029 1.125-1.125 1.125zM17.625 17.625h-2.25v-4.5c0-0.6221-0.5029-1.125-1.125-1.125s-1.125 0.5029-1.125 1.125v4.5h-2.25V9.75h2.25v1.3956c0.4641-0.6362 1.1739-1.3956 1.9688-1.3956 1.3994 0 2.5312 1.2589 2.5312 2.8125z" />
        </symbol>
        <symbol id="Instagram" viewBox="0 0 24 24" fill="currentColor">
            <title>Instagram</title>
            <path d="M11.9988 4.6209c2.4044 0 2.689 0.0107 3.6344 0.0529 0.8791 0.0388 1.3532 0.1861 1.6698 0.3093 0.4185 0.162 0.7205 0.3588 1.0332 0.6715 0.3166 0.3167 0.5096 0.6153 0.6749 1.0338 0.1232 0.3166 0.2705 0.7941 0.3093 1.6698 0.0422 0.9494 0.0529 1.234 0.0529 3.635 0 2.401-0.0107 2.6889-0.0529 3.6349-0.0388 0.8791-0.1861 1.3532-0.3093 1.6699-0.162 0.4184-0.3583 0.7204-0.6715 1.0331-0.3167 0.3167-0.6153 0.5096-1.0332 0.675-0.3166 0.1231-0.7947 0.2705-1.6698 0.3093-0.9494 0.0422-1.234 0.0529-3.635 0.0529-2.401 0-2.6889-0.0107-3.6349-0.0529-0.8791-0.0388-1.3532-0.1862-1.6699-0.3093-0.4184-0.162-0.7205-0.3583-1.0337-0.6716-0.3167-0.3166-0.5096-0.6153-0.6749-1.0332-0.1232-0.3166-0.2706-0.7947-0.3094-1.6698-0.0421-0.9494-0.0528-1.234-0.0528-3.635 0-2.4009 0.0107-2.6889 0.0528-3.6349 0.0388-0.8791 0.1862-1.3532 0.3094-1.6698C5.1502 6.2733 5.347 5.9713 5.6597 5.658 5.9764 5.3414 6.275 5.1485 6.6934 4.9831 7.0101 4.8599 7.4876 4.7126 8.3633 4.6738c0.9454-0.0422 1.2306-0.0529 3.6349-0.0529zM11.9988 3.0006c-2.4432 0-2.7486 0.0107-3.7086 0.0528-0.9561 0.0422-1.6136 0.1969-2.1828 0.4185-0.5939 0.2317-1.0967 0.5377-1.5956 1.0405C4.009 5.0118 3.703 5.514 3.4713 6.1046 3.2497 6.6777 3.0951 7.3312 3.0529 8.2874 3.0107 9.2508 3 9.5562 3 11.9994c0 2.4431 0.0107 2.7485 0.0529 3.7086 0.0421 0.9561 0.1968 1.6136 0.4184 2.1828 0.2323 0.5939 0.5377 1.0967 1.0405 1.5956 0.4989 0.4988 1.0017 0.8087 1.5922 1.0371 0.5731 0.2216 1.2267 0.3762 2.1828 0.4184 0.9595 0.0422 1.2655 0.0529 3.7086 0.0529 2.4432 0 2.7492-0.0107 3.7087-0.0529 0.9561-0.0422 1.6136-0.1968 2.1827-0.4184 0.5906-0.2284 1.0934-0.5377 1.5923-1.0371 0.4988-0.4995 0.8087-1.0017 1.0371-1.5923 0.2216-0.5731 0.3762-1.2266 0.4184-2.1827 0.0422-0.9595 0.0529-1.2655 0.0529-3.7087 0-2.4431-0.0107-2.7485-0.0529-3.7086-0.0422-0.9561-0.1968-1.6136-0.4184-2.1828-0.2216-0.5978-0.5276-1.1001-1.0298-1.5995-0.4989-0.4989-1.0017-0.8088-1.5923-1.0371-0.5731-0.2216-1.2266-0.3763-2.1827-0.4185C14.7485 3.0107 14.4425 3 11.9994 3z" />
            <path d="M11.9976 7.3767c-2.5518 0-4.6226 2.0703-4.6226 4.6226s2.0703 4.6226 4.6226 4.6226c2.5523 0 4.6225-2.0703 4.6225-4.6226 0-2.5517-2.0702-4.6226-4.6225-4.6226zM11.9976 14.9976c-1.6558 0-2.9983-1.3425-2.9983-2.9983 0-1.6558 1.3425-2.9983 2.9983-2.9983 1.6557 0 2.9983 1.3425 2.9983 2.9983s-1.3426 2.9983-2.9983 2.9983z" />
            <path d="M17.8812 7.194c0 0.5962-0.4831 1.0793-1.0793 1.0793-0.5961 0-1.0792-0.4831-1.0792-1.0793 0-0.5961 0.4831-1.0793 1.0792-1.0793 0.5962 0 1.0793 0.4832 1.0793 1.0793z" />
        </symbol>
        <symbol id="Favicon" viewBox="0 0 32 32" fill="currentColor">
            <title>Favicon</title>
            <path d="M15.4506 6.4195c0.2964 0.1472 0.6297 0.5699 0.8534 0.8199 1.9195 2.1442 2.9263 4.8752 2.7482 7.75-0.1724 2.7819-1.5462 5.2521-3.6083 7.0777-0.3905-0.2669-0.7478-0.6468-1.0602-1-1.7517-1.9812-2.7119-4.7648-2.5446-7.4056 0.1724-2.7227 1.5642-5.4471 3.6115-7.242z" />
            <path d="M23.6207 10.3131c57e-4 97e-4 0.0122 0.0189 0.0171 0.029 0.1092 0.2224 0.1408 0.5754 0.1685 0.8223 0.1443 1.284 0.0249 2.5713-0.4267 3.7871-1.1282 3.0372-3.736 5.273-6.6193 6.5984-0.034-4e-4-0.0112 23e-4-0.063-0.0279 0.1761-0.2882 0.4219-0.5458 0.6252-0.8167 0.3109-0.4228 0.5927-0.8662 0.8432-1.3269 0.8833-1.6253 1.3057-3.4127 1.3043-5.256-3e-4-0.5235-0.0123-1.0464-0.1638-1.5517 0.2704-0.3001 0.6017-0.553 0.9233-0.7964 1.0365-0.7844 2.0809-1.3303 3.3912-1.4612z" />
            <path d="M7.2455 10.3259c0.1556 59e-4 0.3126 0.0261 0.4665 0.0496 1.1844 0.1802 2.2207 0.8109 3.1459 1.5408 0.2583 0.2038 0.5408 0.4162 0.7353 0.6839-0.492 2.5275 0.1605 5.1776 1.4674 7.3635 0.2087 0.3474 0.4342 0.6844 0.6756 1.0101 0.1153 0.1552 0.2525 0.296 0.3559 0.4589l-0.0366 0.0475c-2.1548-0.9215-4.1734-2.5522-5.472-4.5013-1.3624-2.0449-1.8129-4.2477-1.338-6.653z" />
            <path d="M25.7283 15.9661c0.3436-0.041 1.1136-0.0843 1.4016 0.0991 0.0145 0.0433 0.0188 0.0476 0.0203 0.1002 58e-4 0.2015-0.1259 0.5033-0.1942 0.6913-0.457 1.2976-1.2394 2.4563-2.2722 3.3651-2.0219 1.7877-4.6427 2.4291-7.2895 2.2589-0.5-0.0522-1.0153-0.087-1.4959-0.2402 2.2176-0.6821 4.3271-2.0756 5.8555-3.8158 0.3757-0.4279 0.6511-0.9246 1.0167-1.3548 0.6938-0.8167 1.9518-1.0326 2.9577-1.1038z" />
            <path d="M4.5431 16.0338c1.0334-0.1218 2.4357 0.0484 3.2869 0.6918 0.506 0.3826 0.811 1.0929 1.2293 1.5765 1.3079 1.5146 2.946 2.7089 4.7882 3.4907 0.3923 0.1679 0.7961 0.3432 1.2109 0.4453l-0.8291 0.1385c-2.4145 0.3475-4.9165-0.0839-6.9824-1.4271-1.4068-0.915-2.3974-2.1696-2.9797-3.7345-0.0855-0.2295-0.2135-0.4786-0.2572-0.7177-0.0255-0.1397-31e-4-0.2317 0.0785-0.3501 0.1299-0.0956 0.2987-0.0944 0.4546-0.1134z" />
            <path d="M15.5762 22.4018c0.42 0.1493 0.8427 0.2689 1.2833 0.3404 0.7591 0.1231 1.6411 0.0871 2.3231 0.4825 0.5036 0.2921 1.0194 0.9761 1.1617 1.5432 0.0261 0.1041 0.0186 0.1126-0.0348 0.1989-0.5271 0.1899-1.039 0.1447-1.5635-0.0271-1.2635-0.4132-2.5514-1.334-3.1698-2.5379z" />
            <path d="M15.3384 22.4049c0.0266-23e-4 0.0522 0.0116 0.078 0.0189-13e-4 0.012-11e-4 0.0244-4e-3 0.0364-0.0648 0.2689-1.105 1.3653-1.3452 1.5552-0.8299 0.6554-2.0622 1.1757-3.133 1.0477-0.0286-62e-4-0.0684-0.0139-0.0944-0.0259-0.0577-0.0267-0.0942-0.048-0.1094-0.1103-0.0406-0.1675 0.0546-0.3617 0.1308-0.5072 0.2452-0.4689 0.6293-1.019 1.1105-1.2724 0.5931-0.3118 1.4689-0.3107 2.1281-0.4279 0.4223-0.075 0.8292-0.1896 1.2386-0.3145z" />
        </symbol>
        <symbol id="Facebook" viewBox="0 0 24 24" fill="none">
            <title>Facebook</title>
            <path fill="currentColor" d="M22 12.3038c0-5.5566-4.4771-10.0611-10-10.0611-5.5228 0-10 4.5045-10 10.0611 0 5.0217 3.6568 9.1841 8.4375 9.9389v-7.0306H7.8984l0-2.9083h2.5391v-2.2166c0-2.5216 1.493-3.9144 3.7771-3.9144 1.0942 0 2.2385 0.1965 2.2385 0.1965v2.476l-1.2609 0c-1.2422 0-1.6297 0.7756-1.6297 1.5713v1.8872h2.7734l-0.4433 2.9083h-2.3301v7.0306C18.3432 21.4879 22 17.3257 22 12.3038z" />
        </symbol>
        <symbol id="bigX" viewBox="0 0 24 24" fill="none">
            <title>bigX</title>
            <path fill="currentColor" d="M17.1761 4.2427l2.7601 0-6.0301 6.7774L21 20.2427h-5.5544l-4.3505-5.5934-4.9779 5.5934H3.3554l6.4498-7.2492L3 4.2427l5.6954 0 3.9325 5.1126zM16.2073 18.6181h1.5295L7.8644 5.782l-1.6412 0z" />
        </symbol>

        <symbol id="Logo" viewBox="0 0 111 32">
         <title>Logo</title>
         <path d="M19.226 0c0.498 0.247 1.057 0.957 1.433 1.377 3.223 3.6 4.913 8.185 4.614 13.011-0.29 4.67-2.596 8.818-6.058 11.883-0.656-0.448-1.256-1.086-1.78-1.679-2.941-3.326-4.553-8-4.272-12.433 0.29-4.571 2.626-9.145 6.063-12.159z"></path>
         <path d="M32.94 6.537c0.010 0.016 0.020 0.032 0.029 0.049 0.184 0.373 0.236 0.966 0.283 1.381 0.242 2.156 0.042 4.317-0.716 6.358-1.894 5.099-6.273 8.853-11.113 11.078-0.057-0.001-0.019 0.004-0.106-0.047 0.296-0.484 0.708-0.916 1.050-1.371 0.522-0.71 0.995-1.454 1.416-2.228 1.483-2.729 2.192-5.729 2.19-8.824-0.001-0.879-0.021-1.757-0.275-2.605 0.454-0.504 1.010-0.928 1.55-1.337 1.74-1.317 3.494-2.233 5.694-2.453z"></path>
         <path d="M5.45 6.558c0.261 0.010 0.525 0.044 0.783 0.083 1.989 0.303 3.728 1.361 5.282 2.587 0.434 0.342 0.908 0.699 1.234 1.148-0.826 4.243 0.27 8.693 2.464 12.363 0.35 0.583 0.729 1.149 1.134 1.696 0.194 0.26 0.424 0.497 0.598 0.77l-0.061 0.080c-3.618-1.547-7.007-4.285-9.187-7.557-2.287-3.433-3.044-7.132-2.246-11.17z"></path>
         <path d="M36.48 16.028c0.577-0.069 1.87-0.142 2.353 0.166 0.024 0.073 0.032 0.080 0.034 0.168 0.010 0.338-0.211 0.845-0.326 1.161-0.767 2.178-2.081 4.124-3.815 5.65-3.395 3.002-7.795 4.078-12.238 3.793-0.839-0.088-1.705-0.146-2.511-0.403 3.723-1.145 7.265-3.485 9.831-6.406 0.631-0.718 1.093-1.552 1.707-2.275 1.165-1.371 3.277-1.734 4.966-1.853z"></path>
         <path d="M0.912 16.142c1.735-0.205 4.089 0.081 5.518 1.161 0.85 0.642 1.362 1.835 2.064 2.647 2.196 2.543 4.946 4.548 8.039 5.861 0.659 0.282 1.337 0.576 2.033 0.748l-1.392 0.233c-4.054 0.583-8.254-0.141-11.723-2.396-2.362-1.536-4.025-3.642-5.003-6.27-0.144-0.385-0.358-0.803-0.432-1.205-0.043-0.234-0.005-0.389 0.132-0.588 0.218-0.16 0.501-0.159 0.763-0.19z"></path>
         <path d="M71.705 12.638c1.351-0.011 2.825-0.132 4.159 0.063 0.859 0.125 1.731 0.433 2.253 1.169 0.384 0.542 0.508 1.303 0.39 1.95-0.145 0.792-0.647 1.25-1.283 1.677 0.153 0.064 0.302 0.135 0.448 0.213 0.562 0.304 0.96 0.83 1.124 1.444 0.225 0.84 0.045 1.705-0.373 2.45-0.094 0.143-0.205 0.268-0.329 0.386-1.282 1.216-4.094 0.981-5.751 0.966-0.319-0.003-0.738 0.025-0.976-0.217-0.058-0.121-0.081-0.201-0.089-0.338-0.109-1.78-0.010-3.627-0.011-5.412-0.001-1.265-0.127-2.911 0.038-4.133 0.127-0.159 0.208-0.159 0.399-0.218zM76.23 18.897c-0.716-0.467-1.92-0.332-2.751-0.331l0.004 2.306c0.92 0.006 1.995 0.149 2.811-0.345 0.192-0.283 0.385-0.705 0.329-1.058-0.040-0.256-0.181-0.433-0.394-0.572zM75.89 14.796c-0.683-0.411-1.641-0.307-2.408-0.303v2.214c0.823 0.006 1.806 0.128 2.525-0.337 0.194-0.277 0.381-0.675 0.308-1.025-0.053-0.257-0.206-0.417-0.425-0.549z"></path>
         <path d="M59.109 15.035c0.206-0.017 0.414-0.006 0.616 0.033 0.618 0.124 0.92 0.578 1.251 1.064 0.019-0.169 0.031-0.353 0.070-0.518 0.041-0.172 0.135-0.278 0.29-0.361 0.249-0.133 0.787-0.142 1.048-0.045 0.191 0.071 0.403 0.237 0.469 0.437 0.194 0.59 0.118 6.368 0.006 7.16-0.074 0.521-0.236 1.035-0.499 1.491-0.423 0.737-1.144 1.218-1.954 1.438-1.142 0.308-2.441 0.21-3.46-0.403-0.455-0.273-0.667-0.627-0.787-1.134 0.038-0.183 0.084-0.361 0.241-0.48 0.511-0.386 1.613 0.261 2.18 0.366 0.488 0.090 1.014 0.041 1.419-0.266 0.668-0.504 0.778-1.436 0.893-2.204-0.447 0.478-0.871 0.863-1.531 1.024-0.715 0.176-1.498 0.055-2.113-0.352-0.81-0.537-1.262-1.457-1.428-2.392-0.202-1.138-0.026-2.499 0.664-3.452 0.658-0.908 1.563-1.242 2.626-1.405zM59.231 16.777c-0.532 0.201-0.827 0.447-1.055 0.978-0.281 0.652-0.29 1.598-0.016 2.252 0.145 0.345 0.436 0.708 0.803 0.831 0.242 0.081 0.534 0.046 0.782 0.028 0.438-0.157 0.689-0.34 0.896-0.766 0.32-0.654 0.329-1.577 0.085-2.26-0.142-0.397-0.421-0.787-0.818-0.958-0.203-0.088-0.458-0.116-0.678-0.105z"></path>
         <path d="M103.333 15.096c0.523-0.069 1.038-0.046 1.532 0.159 0.682 0.283 1.036 0.797 1.306 1.454 0.138-0.347 0.291-0.696 0.536-0.983 0.387-0.456 0.894-0.637 1.481-0.659 0.677-0.026 1.37 0.129 1.866 0.615 0.326 0.32 0.526 0.748 0.635 1.186 0.29 1.168 0.128 3.677 0.132 4.997 0.001 0.202 0.026 0.84-0.132 0.96-0.269 0.203-1.221 0.158-1.556 0.11-0.196-0.027-0.317-0.133-0.397-0.31-0.124-0.273-0.058-0.76-0.054-1.062 0.013-0.979 0.254-3.684-0.325-4.398-0.134-0.164-0.322-0.266-0.534-0.281-0.312-0.022-0.709 0.086-0.936 0.308-0.802 0.787-0.536 3.583-0.53 4.683 0.002 0.222 0.010 0.465-0.017 0.685-0.013 0.097-0.046 0.21-0.135 0.261-0.343 0.196-1.175 0.167-1.553 0.079-0.196-0.046-0.28-0.112-0.35-0.303-0.117-0.316-0.052-0.785-0.046-1.119 0.018-0.981 0.25-3.42-0.249-4.155-0.15-0.221-0.372-0.355-0.635-0.398-0.298-0.049-0.608-0.009-0.851 0.183-0.977 0.77-0.71 3.47-0.705 4.586 0.001 0.268 0.056 0.652-0.007 0.903-0.025 0.105-0.055 0.168-0.145 0.227-0.314 0.206-1.165 0.162-1.54 0.088-0.158-0.031-0.259-0.128-0.327-0.271-0.096-0.203-0.125-6.071-0.089-6.652 0.010-0.162 0.043-0.335 0.118-0.48 0.096-0.187 0.255-0.309 0.451-0.372 0.465-0.15 1.044 0.016 1.454 0.244 0.099 0.367 0.028 0.847 0.013 1.229 0.048-0.098 0.097-0.195 0.147-0.291 0.362-0.7 0.702-0.986 1.442-1.22z"></path>
         <path d="M94.891 15.127c2.161-0.044 3.957 1.657 4.028 3.817s-1.608 3.976-3.768 4.074c-1.421 0.065-2.767-0.64-3.523-1.844s-0.806-2.723-0.131-3.975c0.675-1.252 1.972-2.044 3.394-2.073zM95.339 16.875c-0.23-0.068-0.479-0.053-0.715-0.031-0.581 0.258-0.896 0.554-1.121 1.16-0.269 0.725-0.225 1.738 0.119 2.431 0.186 0.373 0.473 0.676 0.874 0.809 0.275 0.092 0.532 0.107 0.814 0.041 0.557-0.233 0.889-0.53 1.117-1.101 0.286-0.715 0.284-1.671-0.045-2.372-0.206-0.438-0.573-0.799-1.043-0.938z"></path>
         <path d="M51.135 15.138c2.175-0.098 4.019 1.584 4.12 3.759s-1.578 4.020-3.752 4.125c-2.179 0.105-4.030-1.578-4.132-3.758s1.584-4.027 3.764-4.126zM51.749 16.897c-0.252-0.086-0.511-0.086-0.773-0.053-0.582 0.288-0.915 0.588-1.138 1.225-0.252 0.721-0.214 1.751 0.148 2.428 0.198 0.369 0.497 0.639 0.901 0.763 0.248 0.076 0.529 0.084 0.781 0.023 0.555-0.231 0.88-0.53 1.103-1.1 0.283-0.722 0.26-1.675-0.067-2.381-0.192-0.414-0.52-0.755-0.957-0.905z"></path>
         <path d="M86.046 15.181c1.401-0.227 2.815 0.317 3.704 1.423s1.115 2.605 0.592 3.924c-0.524 1.318-1.714 2.255-3.119 2.451-2.14 0.299-4.123-1.18-4.445-3.317s1.136-4.135 3.269-4.48zM86.368 16.84c-0.584 0.249-0.921 0.531-1.157 1.136-0.277 0.71-0.251 1.693 0.077 2.383 0.198 0.416 0.536 0.759 0.981 0.9 0.223 0.071 0.475 0.071 0.705 0.042 0.583-0.246 0.923-0.522 1.165-1.128 0.28-0.704 0.276-1.676-0.051-2.363-0.194-0.409-0.524-0.754-0.957-0.907-0.244-0.086-0.508-0.084-0.764-0.063z"></path>
         <path d="M66.334 15.1c0.493-0.059 0.97-0.049 1.456 0.063 0.738 0.171 1.358 0.601 1.734 1.264 0.201 0.355 0.318 0.744 0.374 1.146 0.086 0.622 0.135 4.559-0.007 5.101-0.119 0.152-0.239 0.207-0.424 0.247-0.316 0.067-1.008 0.106-1.263-0.13-0.223-0.206-0.177-0.637-0.18-0.914-0.37 0.547-0.743 0.988-1.416 1.156-0.751 0.187-1.447-0.032-2.095-0.405-0.276-0.255-0.487-0.516-0.605-0.877-0.2-0.609-0.135-1.429 0.177-1.989 0.755-1.359 2.535-1.278 3.837-1.661l0.081-0.024c-0.053-0.163-0.104-0.329-0.172-0.486-0.737-1.698-2.573 0.158-3.461-0.309-0.179-0.094-0.308-0.284-0.353-0.479-0.061-0.258 0.008-0.425 0.149-0.64 0.477-0.727 1.371-0.911 2.167-1.063zM67.916 19.637c-0.541 0.149-1.555 0.313-1.878 0.804-0.105 0.16-0.115 0.37-0.047 0.547 0.048 0.125 0.142 0.233 0.226 0.336 0.559 0.038 0.91-0.003 1.338-0.392 0.259-0.236 0.497-0.616 0.484-0.981-0.003-0.091-0.029-0.184-0.050-0.271l-0.073-0.042z"></path>
         <path d="M44.261 16.562c0.194-0.616 1.702-3.562 2.182-3.839 0.25-0.144 1.582-0.166 1.85-0.043 0.172 0.079 0.19 0.125 0.268 0.285-0.137 0.763-1.823 3.323-2.321 4.158l-0.876 1.456c0.003 0.875 0.157 3.548-0.148 4.182-0.107 0.082-0.183 0.127-0.317 0.159-0.411 0.096-1.23 0.068-1.592-0.16-0.281-0.37-0.134-3.437-0.133-4.116-0.448-0.716-3.337-5.329-3.261-5.77 0.095-0.137 0.157-0.172 0.312-0.232 0.487-0.014 1.478-0.144 1.882 0.101 0.523 0.318 1.96 3.172 2.154 3.82z"></path>
         <path d="M80.043 12.639c0.511-0.013 1.348-0.141 1.789 0.123 0.124 0.842 0.075 1.733 0.077 2.583l0.005 3.933c0 1.027 0.113 2.263-0.019 3.271-0.026 0.201-0.15 0.266-0.296 0.381-0.533 0.017-1.352 0.149-1.79-0.197-0.103-0.394-0.168-9.474-0.069-9.832 0.047-0.17 0.159-0.189 0.303-0.262z"></path>
         <path d="M19.436 26.833c0.705 0.251 1.415 0.451 2.155 0.572 1.274 0.206 2.755 0.146 3.9 0.81 0.846 0.49 1.711 1.639 1.95 2.591 0.044 0.175 0.031 0.189-0.058 0.334-0.885 0.319-1.744 0.243-2.625-0.046-2.121-0.694-4.284-2.24-5.322-4.261z"></path>
         <path d="M19.036 26.838c0.045-0.004 0.088 0.020 0.131 0.032-0.002 0.020-0.002 0.041-0.007 0.061-0.109 0.451-1.855 2.292-2.259 2.611-1.393 1.1-3.462 1.974-5.26 1.759-0.048-0.010-0.115-0.023-0.159-0.044-0.097-0.045-0.158-0.081-0.184-0.185-0.068-0.281 0.092-0.607 0.22-0.852 0.412-0.787 1.057-1.711 1.864-2.136 0.996-0.523 2.466-0.521 3.573-0.718 0.709-0.126 1.392-0.318 2.079-0.528z"></path>
</symbol>
    </defs>
</svg>