

        <svg xmlns="http://www.w3.org/2000/svg" viewBox="0 0 32 32" fill="currentColor">
<title>Favicon</title>

<path d="M15.4506 6.4195c0.2964 0.1472 0.6297 0.5699 0.8534 0.8199 1.9195 2.1442 2.9263 4.8752 2.7482 7.75-0.1724 2.7819-1.5462 5.2521-3.6083 7.0777-0.3905-0.2669-0.7478-0.6468-1.0602-1-1.7517-1.9812-2.7119-4.7648-2.5446-7.4056 0.1724-2.7227 1.5642-5.4471 3.6115-7.242z" />
            <path d="M23.6207 10.3131c57e-4 97e-4 0.0122 0.0189 0.0171 0.029 0.1092 0.2224 0.1408 0.5754 0.1685 0.8223 0.1443 1.284 0.0249 2.5713-0.4267 3.7871-1.1282 3.0372-3.736 5.273-6.6193 6.5984-0.034-4e-4-0.0112 23e-4-0.063-0.0279 0.1761-0.2882 0.4219-0.5458 0.6252-0.8167 0.3109-0.4228 0.5927-0.8662 0.8432-1.3269 0.8833-1.6253 1.3057-3.4127 1.3043-5.256-3e-4-0.5235-0.0123-1.0464-0.1638-1.5517 0.2704-0.3001 0.6017-0.553 0.9233-0.7964 1.0365-0.7844 2.0809-1.3303 3.3912-1.4612z" />
            <path d="M7.2455 10.3259c0.1556 59e-4 0.3126 0.0261 0.4665 0.0496 1.1844 0.1802 2.2207 0.8109 3.1459 1.5408 0.2583 0.2038 0.5408 0.4162 0.7353 0.6839-0.492 2.5275 0.1605 5.1776 1.4674 7.3635 0.2087 0.3474 0.4342 0.6844 0.6756 1.0101 0.1153 0.1552 0.2525 0.296 0.3559 0.4589l-0.0366 0.0475c-2.1548-0.9215-4.1734-2.5522-5.472-4.5013-1.3624-2.0449-1.8129-4.2477-1.338-6.653z" />
            <path d="M25.7283 15.9661c0.3436-0.041 1.1136-0.0843 1.4016 0.0991 0.0145 0.0433 0.0188 0.0476 0.0203 0.1002 58e-4 0.2015-0.1259 0.5033-0.1942 0.6913-0.457 1.2976-1.2394 2.4563-2.2722 3.3651-2.0219 1.7877-4.6427 2.4291-7.2895 2.2589-0.5-0.0522-1.0153-0.087-1.4959-0.2402 2.2176-0.6821 4.3271-2.0756 5.8555-3.8158 0.3757-0.4279 0.6511-0.9246 1.0167-1.3548 0.6938-0.8167 1.9518-1.0326 2.9577-1.1038z" />
            <path d="M4.5431 16.0338c1.0334-0.1218 2.4357 0.0484 3.2869 0.6918 0.506 0.3826 0.811 1.0929 1.2293 1.5765 1.3079 1.5146 2.946 2.7089 4.7882 3.4907 0.3923 0.1679 0.7961 0.3432 1.2109 0.4453l-0.8291 0.1385c-2.4145 0.3475-4.9165-0.0839-6.9824-1.4271-1.4068-0.915-2.3974-2.1696-2.9797-3.7345-0.0855-0.2295-0.2135-0.4786-0.2572-0.7177-0.0255-0.1397-31e-4-0.2317 0.0785-0.3501 0.1299-0.0956 0.2987-0.0944 0.4546-0.1134z" />
            <path d="M15.5762 22.4018c0.42 0.1493 0.8427 0.2689 1.2833 0.3404 0.7591 0.1231 1.6411 0.0871 2.3231 0.4825 0.5036 0.2921 1.0194 0.9761 1.1617 1.5432 0.0261 0.1041 0.0186 0.1126-0.0348 0.1989-0.5271 0.1899-1.039 0.1447-1.5635-0.0271-1.2635-0.4132-2.5514-1.334-3.1698-2.5379z" />
            <path d="M15.3384 22.4049c0.0266-23e-4 0.0522 0.0116 0.078 0.0189-13e-4 0.012-11e-4 0.0244-4e-3 0.0364-0.0648 0.2689-1.105 1.3653-1.3452 1.5552-0.8299 0.6554-2.0622 1.1757-3.133 1.0477-0.0286-62e-4-0.0684-0.0139-0.0944-0.0259-0.0577-0.0267-0.0942-0.048-0.1094-0.1103-0.0406-0.1675 0.0546-0.3617 0.1308-0.5072 0.2452-0.4689 0.6293-1.019 1.1105-1.2724 0.5931-0.3118 1.4689-0.3107 2.1281-0.4279 0.4223-0.075 0.8292-0.1896 1.2386-0.3145z" />

</svg>